Patient4_TMGait_0pt7_02_right_49_EMG.mot
version=1
nRows=36
nColumns=33
inDegrees=no
endheader
time	1LAddLong	2LGlutMax	3LGlutMed	4LIliopsoas	5LSemiMemb	6LBicFemLong	7LRecFem	8LVastMed	9LVastLat	10LGasMed	11LTibAnt	12lTibPost	13LPeroneusLong	14LSol	15LExtDigLong	16LFlexDigLong	17RAddLong	18RGlutMax	19RGlutMed	20RIliopsoas	21RSemiMemb	22RBicFemLong	23RRecFem	24RVastMed	25RVastLat	26RGasMed	27RTibAnt	28RTibPost	29RPeroneusLong	30RSol	31RExtDigLong	32RFlexDigLong
56.728	0.010529	0.10086	-0.064392	0.009918	0.060577	-0.055695	0.032043	-0.028229	0.22217	-0.001373	-0.097351	0.010529	0.064697	0.071106	-0.336	0.00473	0.001831	-0.047302	-0.27786	-0.038147	0.020294	0.18127	-0.016022	-0.010223	0.026245	-0.019836	-0.24338	-0.001831	-0.11292	-0.028687	-0.00473	-0.006714
56.729	0.021362	0.14511	-0.019379	0.018005	0.023804	-0.033875	0.15121	-0.007935	0.23285	0.016174	-0.12177	0.010529	-0.042877	0.067291	0.16205	0.002136	0.018005	-0.089417	0.043793	-0.027313	-0.12299	0.096741	-0.004272	-0.080719	0.022125	-0.020447	-0.04776	-0.00061	-0.21194	-0.007782	-0.003052	-0.005493
56.73	0.001526	0.14313	0.078583	0.006104	0.002441	0.01297	0.15625	-0.01236	0.1236	0.004578	-0.045929	0.006866	-0.030212	0.081787	-0.40482	-0.002899	0.027313	-0.070343	0.20401	-0.014496	-0.001831	0.11459	0.006256	-0.088196	0.02655	-0.018463	0.002594	-0.003967	-0.22675	-0.014648	0	-0.009613
56.731	0.007629	0.13168	0.081024	0.006409	0.036316	0.041809	0.1004	-0.000305	-0.017242	-0.023956	-0.057983	0.016632	0.019073	0.056305	-0.49622	-0.00946	0.015259	-0.11093	-0.013428	-0.022888	0.086823	0.13718	-0.015869	-0.078583	0.023956	-0.02121	0.10803	0.001373	-0.19089	-0.022736	0.000153	-0.007629
56.732	0.017548	0.10681	0.089722	0.004883	0.031433	0.029297	0.10056	0.000763	-0.095673	-0.024109	-0.087433	0.00473	-0.011444	-0.056915	-0.53635	-0.017242	-0.001221	-0.11139	0.095215	-0.042572	0.037842	0.039978	0.005951	-0.039063	0.03006	-0.020599	0.12451	0	0.083008	-0.027008	-0.000458	-0.011749
56.733	-0.002899	0.081635	0.004425	0.033722	-0.02182	0.12238	0.13458	-0.000763	-0.096436	0.002441	-0.072174	0.010376	-0.03479	-0.14038	-0.053558	-0.094452	-0.017548	-0.099945	0.2655	-0.040894	0.19714	-0.010071	0.031433	-0.005646	0.026245	-0.018768	0.095978	-0.001068	0.069122	-0.047913	-0.003052	-0.001831
56.734	-0.022278	0.066223	0.023956	0.018616	-0.046844	0.16312	0.14938	0.014191	-0.071259	0.019989	-0.06546	0.012207	-0.055695	-0.13229	-0.037537	-0.15762	-0.015564	-0.086517	0.16953	-0.032043	0.088501	-0.036011	-0.023041	0.014801	0.04715	-0.018921	0.11017	-0.001068	0.025635	-0.058899	-0.002899	-0.004578
56.735	-0.00885	0.071869	-0.005493	0.019379	-0.04425	0.15182	0.11658	0.007782	0.007629	0.001068	-0.002136	0.010986	-0.061035	-0.052185	0.061188	0.5278	0.003052	-0.043335	0.013733	-0.033112	0.036926	-0.09201	0.020905	-0.046082	0.025482	-0.024109	0.1236	-0.000305	0.018921	-0.032806	-0.000458	0.003357
56.736	-0.015564	0.056458	0.011292	0.038757	-0.044098	0.16632	0.15503	0.005798	0.028839	-0.046539	0.033264	0.01236	-0.054626	-0.011749	0.11246	-0.074463	0.024261	-0.084381	-0.088043	-0.021515	0.002747	-0.13473	-0.000458	-0.040741	0.041046	-0.020142	0.11597	0.001373	0.13062	-0.022278	-0.000458	0.002441
56.737	-0.019989	0.055695	0.072784	0.014801	-0.030212	0.14069	0.15228	0.00412	0.091248	-0.064392	0.020752	0.015869	-0.009918	0.033875	0.12634	-0.12054	0.032349	-0.075378	-0.14786	-0.061646	-0.04364	-0.1033	0.041199	-0.084534	0.02655	-0.015717	0.11658	0.009918	0.34439	-0.039368	0.000305	0.002747
56.738	-0.031433	0.045624	-0.023346	0.023804	-0.010376	0.036926	0.16037	0.005188	0.037231	-0.080872	-0.007324	0.012054	0.019836	0.070953	0.10346	-0.17593	0.03418	-0.097198	-0.19073	-0.11414	-0.078888	-0.018921	0.025024	-0.066833	0.015869	-0.014343	0.08667	-0.000916	0.20432	-0.022736	-0.003052	0.002136
56.739	-0.023651	-0.000153	-0.05249	0.008087	0.010376	0.045013	0.16327	0.004883	0.010376	-0.11643	-0.019226	0.015717	0.010681	0.10864	0.15915	0.48981	0.026855	-0.10941	-0.11322	-0.046387	-0.20004	0.063171	0.032501	-0.050049	0.036011	-0.013733	-0.037079	0.000305	-0.019836	-0.043335	-0.002441	-0.000305
56.74	0.006256	0.056915	-0.051575	0.016327	-0.001526	0.088196	0.13367	0.013733	0.022888	-0.10834	-0.00824	0.007172	0.007935	0.103	0.14084	-0.30045	-0.011139	-0.052185	-0.13794	0.002594	-0.062256	0.13489	-0.004578	0.036316	0.028839	-0.011139	-0.065002	-0.000458	-0.1297	-0.036926	-0.001373	0.004883
56.741	0.022583	0.086365	-0.05722	0.027313	-0.018158	-0.044556	0.13748	-0.002594	0.050049	-0.070953	0.006104	0.012665	0.005341	0.10529	0.10529	-0.002594	-0.014496	-0.063019	0.09964	0.048218	0.11871	0.17303	-0.049744	0.036163	0.033264	-0.018921	0.017395	-0.001831	-0.34424	-0.016327	-0.002899	0.000916
56.742	0.033722	0.057526	0.002289	0.024719	-0.003815	-0.12802	0.1532	0.000763	0.055542	-0.050201	0.011749	0.005646	0.014191	0.046539	0.11322	0.040131	-0.019226	-0.04303	0.063934	0.1442	0.1004	0.18616	-0.039825	0.019073	0.037384	-0.020599	0.085297	-0.000916	-0.35263	-0.001526	-0.000305	-0.00061
56.743	0.028381	0.051575	-0.085449	0.022736	0.095215	-0.3038	0.20386	0.001831	0.007782	-0.006104	0.016022	0.006409	-0.02655	-0.018463	0.11246	-0.19608	-0.00946	-0.014648	-0.41718	0.1564	-0.003204	-0.040283	-0.058746	-0.018463	0.02243	-0.015717	0.06958	-0.000763	-0.075836	-0.024872	-0.00061	-0.005798
56.744	0.021362	0.093689	-0.028534	-0.004883	0.13458	-0.21759	0.22812	-0.011597	-0.001831	-0.017548	0.021973	0.014954	-0.049591	-0.041199	0.12695	-0.19989	0.022278	-0.061188	-0.73807	0.1059	-0.027771	-0.16708	-0.027161	-0.030518	0.007477	-0.017395	0.094299	-0.004883	0.023346	-0.016632	-0.001526	-0.001526
56.745	0.018616	0.086212	0.018005	-0.001068	0.075684	-0.016022	0.21088	0.019073	-0.006256	-0.038147	0.018158	0.019836	-0.056458	-0.12177	0.13519	0.13397	0.025787	-0.046997	-0.47287	0.06424	-0.073242	-0.1297	0.01358	-0.015869	0.020599	-0.016174	0.12177	-0.000153	0.48614	-0.031891	0.003662	-0.00473
56.746	0.01236	0.051727	0.001678	0.012207	0.031586	0.065613	0.20309	0.018921	0.016479	-0.093231	0.017853	0.036316	-0.056152	0.001831	0.11505	0.22919	0.02243	-0.005798	-0.50598	0.008087	-0.07843	-0.080414	-0.015717	-0.050201	0.019989	-0.011444	0.029907	-0.000153	0.18127	-0.034485	-0.002747	-0.007019
56.747	0.00946	0.031281	-0.012512	0.031586	0.012054	0.084534	0.26306	0.011749	-0.022583	-0.029755	0.026093	0.000153	-0.050812	0.074463	0.083313	-0.16861	0.035706	0.014038	-0.15457	0.007019	-0.053864	-0.088959	-0.003815	-0.08194	0.018463	-0.009766	-0.002594	0.001068	-0.13336	-0.053864	-0.003815	-0.009766
56.748	-0.001373	0.048828	-0.035706	0.027924	0.007935	0.093231	0.27496	0.005188	-0.036469	0.027771	0.022125	-0.032196	-0.011749	0.14771	0.069427	0.30579	0.024261	0.03479	0.62027	0.00473	0.11765	0.000305	0.020752	-0.056915	0.010834	-0.017548	0.06073	-0.001373	-0.50156	-0.043488	-0.007782	-0.001068
56.749	-0.015564	0.019684	-0.028534	0.020447	0.023956	0.06546	0.24765	0.00885	-0.022888	0.058289	0.013885	0.00473	0.048218	-0.038452	0.019836	0.016632	0.025635	-0.026245	0.21774	0.008545	0.13947	0.19134	-0.051727	-0.087891	0.014191	-0.016327	0.065918	0	-0.21103	-0.062866	0.000305	-0.001221
56.75	-0.019836	0.013275	0.033722	-0.001526	0.031586	-0.029144	0.25269	0.017853	-0.019226	0.16174	0.012665	0.006256	0.078125	-0.26032	0.027313	-0.062256	0.042725	-0.071564	-0.026245	-0.081329	0.079041	0.074921	-0.019073	-0.10071	0.010376	-0.02533	0.065918	-0.004425	0.02121	-0.028992	-0.00061	-0.005341
56.751	-0.015259	0.011749	0.023804	0.018311	0.023651	-0.23422	0.23605	0.018158	-0.01297	0.36148	0.013428	0.009308	0.08255	-0.3302	0.030518	-0.016479	0.018921	-0.040741	0.047455	-0.095673	-0.10864	0.094604	-0.089874	-0.019684	0.015106	-0.019836	0.09491	0.002441	0.073547	-0.022888	-0.002899	0.001984
56.752	-0.013428	0.038757	-0.077362	0.011597	0.005188	-0.33142	0.15305	0.024109	-0.013275	0.46051	0.011597	0.005341	0.10986	-0.4097	0.027008	0.062866	-0.017395	0.039673	-0.22553	-0.088348	-0.14252	0.062561	-0.10162	0.037384	0.044861	-0.020599	0.089874	0	0.2684	-0.044403	-0.005341	0.00473
56.753	-0.01709	0.031128	-0.081787	-0.018463	-0.02533	-0.1474	0.15686	0.026703	0.000763	0.32288	0.012817	0.04364	0.1413	-0.53451	0.006714	-0.022278	-0.016937	0.054169	-0.32669	0.000305	-0.16663	-0.003662	-0.086975	0.067444	0.034637	-0.018158	0.058746	-0.002594	0.17731	-0.049286	-0.003052	0.00061
56.754	-0.010834	0.027466	-0.005798	-0.029144	-0.024719	-0.058289	0.18478	0.003967	-0.016479	0.083771	0.007477	0.041351	0.10483	-0.27206	-0.018158	0.021362	-0.013123	0.022125	0.31204	-0.083008	-0.041351	-0.038452	-0.051575	-0.00824	0.033569	-0.02182	0.063782	-0.001526	-0.53451	-0.002441	-0.004883	0.001526
56.755	0.011292	0.015411	-0.010681	0.018921	0.019531	-0.048981	0.20096	-0.006256	-0.041199	-0.028381	0.020905	0.037842	0.094604	-0.028992	-0.016174	0.036926	0.01297	0.036774	0.82306	-0.42419	-0.021057	-0.029297	-0.023346	-0.040588	0.027161	-0.027466	0.05127	-0.002594	-0.39414	0.04776	-0.003662	-0.001678
56.756	0.010223	0.001373	-0.014343	0.067444	-0.014343	-0.002747	0.21301	-0.027924	-0.006409	0.059662	0.014496	0.069885	0.10574	0.065765	-0.026703	0.037079	0.027618	-0.021515	1.0051	-0.63309	-0.04364	-0.047913	-0.003052	-0.043488	0.025482	-0.029602	0.033112	-0.005035	0.06546	0.015411	-0.000153	-0.00351
56.757	0.018616	-0.018005	-0.009613	0.062103	0.021515	0.046234	0.2301	-0.033569	0.11215	-0.042572	0.014038	0.047607	0.076141	0.15289	-0.034637	0.02182	0.009918	-0.074615	-0.18967	-0.37277	0.080261	-0.015259	-0.032806	-0.020752	0.039978	-0.032196	0.033264	-0.007477	0.10391	-0.032196	-0.002899	-0.003967
56.758	0.027924	-0.013885	-0.026093	0.020294	0.03891	0.11032	0.24262	-0.022888	0.14191	-0.063782	0.021973	-0.011444	0.043335	0.10269	-0.035706	0.008392	-0.03952	-0.069275	-0.63767	0.002899	0.14801	0.028229	-0.051727	0.033112	0.048828	-0.032654	0.055084	-0.007782	0.074005	-0.045013	-0.002441	-0.013428
56.759	0.022888	0.019531	-0.012665	0.005493	0.036011	0.15152	0.30182	-0.020294	-0.053711	0.017853	0.022278	-0.028229	0.033417	0.12421	-0.042572	-0.018463	-0.055084	-0.051422	-0.25436	0.37109	-0.089569	0.1471	-0.045471	0.027466	0.05188	-0.049286	0.058899	-0.007019	0.11322	-0.040436	-0.005493	-0.014801
56.76	0.006866	0.051117	0.026245	0.003815	0.012512	0.16495	0.31158	-0.009766	-0.03067	-0.029449	0.022278	-0.009613	-0.030365	0.092621	-0.061646	-0.021667	-0.036011	-0.036621	-0.48279	0.54977	-0.18768	0.14084	-0.038605	0.042267	0.051727	-0.04425	0.069733	-0.003815	0.19196	-0.035858	-0.000458	-0.016937
56.761	0.010529	0.12177	0.084839	0.001373	-0.000763	0.12253	0.31082	-0.001984	-0.023193	-0.12131	0.028381	-0.009003	-0.075226	0.039368	-0.042419	-0.025787	-0.020294	-0.033417	0.050659	0.62775	-0.13672	0.15457	-0.08194	-0.03952	0.049286	-0.044556	0.075531	-0.004578	-0.001373	-0.044403	-0.003815	-0.016632
56.762	0.014954	0.15427	-0.019989	0.006104	0.0354	0.073395	0.25833	-0.005798	-0.03952	-0.14755	0.025787	-0.007782	-0.070648	0.10956	-0.01236	-0.019073	-0.010834	-0.11932	0.023956	0.40329	-0.094452	0.032501	-0.067596	0.001373	0.02655	-0.043335	0.094147	-0.010071	-0.39475	-0.068054	-0.003662	-0.019226
56.763	0.019989	0.20462	-0.067596	0.027466	0.057526	0.065308	0.26016	0.005798	-0.024872	-0.14984	0.018463	-0.015106	-0.049438	0.1088	-0.005798	-0.008545	-0.008392	-0.1767	0.1474	0.12756	-0.075836	-0.012512	-0.037537	-0.04715	0.014343	-0.047607	0.10071	-0.007019	-0.83313	0.004425	-0.002136	-0.023651
